HIERARCHY
ROOT mixamorig:Hips
{
	OFFSET 0.00 0.00 0.00
	CHANNELS 6 Xposition Yposition Zposition Zrotation Yrotation Xrotation
	JOINT mixamorig:Spine
	{
		OFFSET	0.0000	9.9235	-1.2273
		CHANNELS 3 Zrotation Yrotation Xrotation
		JOINT mixamorig:Spine1
		{
			OFFSET	-0.0001	11.6455	-1.4224
			CHANNELS 3 Zrotation Yrotation Xrotation
			JOINT mixamorig:Spine2
			{
				OFFSET	0.0001	13.3602	-1.6265
				CHANNELS 3 Zrotation Yrotation Xrotation
				JOINT mixamorig:Neck
				{
					OFFSET	0.0000	15.0325	0.7929
					CHANNELS 3 Zrotation Yrotation Xrotation
					JOINT mixamorig:Head
					{
						OFFSET	-0.0000	10.3218	3.1424
						CHANNELS 3 Zrotation Yrotation Xrotation
						JOINT mixamorig:HeadTop_End
						{
							OFFSET	0.0002	18.4747	6.6364
							CHANNELS 3 Zrotation Yrotation Xrotation
							End Site
							{
								OFFSET 0.0000 0.0000 0.0000
							}
						}
						JOINT mixamorig:LeftEye
						{
							OFFSET	2.9479	7.6817	9.1207
							CHANNELS 3 Zrotation Yrotation Xrotation
							End Site
							{
								OFFSET 0.0000 0.0000 0.0000
							}
						}
						JOINT mixamorig:RightEye
						{
							OFFSET	-2.9445	7.6817	9.1205
							CHANNELS 3 Zrotation Yrotation Xrotation
							End Site
							{
								OFFSET 0.0000 0.0000 0.0000
							}
						}
					}
				}
				JOINT mixamorig:LeftShoulder
				{
					OFFSET	6.1059	9.1104	0.7056
					CHANNELS 3 Zrotation Yrotation Xrotation
					JOINT mixamorig:LeftArm
					{
						OFFSET	12.6532	-0.3431	-2.6009
						CHANNELS 3 Zrotation Yrotation Xrotation
						JOINT mixamorig:LeftForeArm
						{
							OFFSET	27.3517	-0.9645	-1.4034
							CHANNELS 3 Zrotation Yrotation Xrotation
							JOINT mixamorig:LeftHand
							{
								OFFSET	27.5619	-0.7072	1.5500
								CHANNELS 3 Zrotation Yrotation Xrotation
								JOINT mixamorig:LeftHandMiddle1
								{
									OFFSET	12.6630	-1.3962	0.9548
									CHANNELS 3 Zrotation Yrotation Xrotation
									JOINT mixamorig:LeftHandMiddle2
									{
										OFFSET	3.6093	-0.1669	0.0778
										CHANNELS 3 Zrotation Yrotation Xrotation
										JOINT mixamorig:LeftHandMiddle3
										{
											OFFSET	3.4004	-0.6274	0.1148
											CHANNELS 3 Zrotation Yrotation Xrotation
											End Site
											{
												OFFSET 3.6205 -0.6493 0.1199
											}
										}
									}
								}
								JOINT mixamorig:LeftHandThumb1
								{
									OFFSET	3.3268	-2.0474	3.5790
									CHANNELS 3 Zrotation Yrotation Xrotation
									JOINT mixamorig:LeftHandThumb2
									{
										OFFSET	3.4890	-1.4806	2.8548
										CHANNELS 3 Zrotation Yrotation Xrotation
										JOINT mixamorig:LeftHandThumb3
										{
											OFFSET	3.4086	-1.7658	2.1133
											CHANNELS 3 Zrotation Yrotation Xrotation
											End Site
											{
												OFFSET 2.7231 -1.1597 1.7903
											}
										}
									}
								}
								JOINT mixamorig:LeftHandIndex1
								{
									OFFSET	11.9722	-1.1061	3.7324
									CHANNELS 3 Zrotation Yrotation Xrotation
									JOINT mixamorig:LeftHandIndex2
									{
										OFFSET	3.8387	-0.6406	-0.0310
										CHANNELS 3 Zrotation Yrotation Xrotation
										JOINT mixamorig:LeftHandIndex3
										{
											OFFSET	3.3346	-0.7374	-0.0133
											CHANNELS 3 Zrotation Yrotation Xrotation
											End Site
											{
												OFFSET 2.9714 -0.8030 0.0009
											}
										}
									}
								}
								JOINT mixamorig:LeftHandRing1
								{
									OFFSET	12.1659	-1.6805	-1.2769
									CHANNELS 3 Zrotation Yrotation Xrotation
									JOINT mixamorig:LeftHandRing2
									{
										OFFSET	3.5925	-0.2366	-0.0771
										CHANNELS 3 Zrotation Yrotation Xrotation
										JOINT mixamorig:LeftHandRing3
										{
											OFFSET	3.2906	-0.3266	-0.0615
											CHANNELS 3 Zrotation Yrotation Xrotation
											End Site
											{
												OFFSET 3.5423 -0.9211 -0.0200
											}
										}
									}
								}
								JOINT mixamorig:LeftHandPinky1
								{
									OFFSET	11.0508	-2.1872	-3.8040
									CHANNELS 3 Zrotation Yrotation Xrotation
									JOINT mixamorig:LeftHandPinky2
									{
										OFFSET	4.1236	-0.3047	0.1212
										CHANNELS 3 Zrotation Yrotation Xrotation
										JOINT mixamorig:LeftHandPinky3
										{
											OFFSET	2.5805	-0.2597	0.0823
											CHANNELS 3 Zrotation Yrotation Xrotation
											End Site
											{
												OFFSET 2.9027 -0.3379 0.0963
											}
										}
									}
								}
							}
						}
					}
				}
				JOINT mixamorig:RightShoulder
				{
					OFFSET	-6.1057	9.1105	0.7056
					CHANNELS 3 Zrotation Yrotation Xrotation
					JOINT mixamorig:RightArm
					{
						OFFSET	-12.6532	-0.3429	-2.6009
						CHANNELS 3 Zrotation Yrotation Xrotation
						JOINT mixamorig:RightForeArm
						{
							OFFSET	-27.3518	-0.9642	-1.4034
							CHANNELS 3 Zrotation Yrotation Xrotation
							JOINT mixamorig:RightHand
							{
								OFFSET	-27.5619	-0.7068	1.5501
								CHANNELS 3 Zrotation Yrotation Xrotation
								JOINT mixamorig:RightHandMiddle1
								{
									OFFSET	-12.6630	-1.3960	0.9549
									CHANNELS 3 Zrotation Yrotation Xrotation
									JOINT mixamorig:RightHandMiddle2
									{
										OFFSET	-3.6093	-0.1669	0.0778
										CHANNELS 3 Zrotation Yrotation Xrotation
										JOINT mixamorig:RightHandMiddle3
										{
											OFFSET	-3.4004	-0.6273	0.1148
											CHANNELS 3 Zrotation Yrotation Xrotation
											End Site
											{
												OFFSET -3.6205 -0.6492 0.1199
											}
										}
									}
								}
								JOINT mixamorig:RightHandThumb1
								{
									OFFSET	-3.3269	-2.0474	3.5790
									CHANNELS 3 Zrotation Yrotation Xrotation
									JOINT mixamorig:RightHandThumb2
									{
										OFFSET	-3.4890	-1.4805	2.8548
										CHANNELS 3 Zrotation Yrotation Xrotation
										JOINT mixamorig:RightHandThumb3
										{
											OFFSET	-3.4086	-1.7658	2.1133
											CHANNELS 3 Zrotation Yrotation Xrotation
											End Site
											{
												OFFSET -2.7231 -1.1596 1.7903
											}
										}
									}
								}
								JOINT mixamorig:RightHandIndex1
								{
									OFFSET	-11.9722	-1.1059	3.7324
									CHANNELS 3 Zrotation Yrotation Xrotation
									JOINT mixamorig:RightHandIndex2
									{
										OFFSET	-3.8387	-0.6406	-0.0310
										CHANNELS 3 Zrotation Yrotation Xrotation
										JOINT mixamorig:RightHandIndex3
										{
											OFFSET	-3.3346	-0.7373	-0.0133
											CHANNELS 3 Zrotation Yrotation Xrotation
											End Site
											{
												OFFSET -2.9715 -0.8029 0.0009
											}
										}
									}
								}
								JOINT mixamorig:RightHandRing1
								{
									OFFSET	-12.1659	-1.6803	-1.2769
									CHANNELS 3 Zrotation Yrotation Xrotation
									JOINT mixamorig:RightHandRing2
									{
										OFFSET	-3.5925	-0.2366	-0.0771
										CHANNELS 3 Zrotation Yrotation Xrotation
										JOINT mixamorig:RightHandRing3
										{
											OFFSET	-3.2906	-0.3265	-0.0615
											CHANNELS 3 Zrotation Yrotation Xrotation
											End Site
											{
												OFFSET -3.5423 -0.9210 -0.0200
											}
										}
									}
								}
								JOINT mixamorig:RightHandPinky1
								{
									OFFSET	-11.0508	-2.1870	-3.8040
									CHANNELS 3 Zrotation Yrotation Xrotation
									JOINT mixamorig:RightHandPinky2
									{
										OFFSET	-4.1236	-0.3046	0.1212
										CHANNELS 3 Zrotation Yrotation Xrotation
										JOINT mixamorig:RightHandPinky3
										{
											OFFSET	-2.5805	-0.2597	0.0823
											CHANNELS 3 Zrotation Yrotation Xrotation
											End Site
											{
												OFFSET -2.9027 -0.3379 0.0963
											}
										}
									}
								}
							}
						}
					}
				}
			}
		}
	}
	JOINT mixamorig:RightUpLeg
	{
		OFFSET	-9.1245	-6.6564	-0.0554
		CHANNELS 3 Zrotation Yrotation Xrotation
		JOINT mixamorig:RightLeg
		{
			OFFSET	0.0000	-40.5610	-1.7662
			CHANNELS 3 Zrotation Yrotation Xrotation
			JOINT mixamorig:RightFoot
			{
				OFFSET	0.4978	-41.9625	-3.3512
				CHANNELS 3 Zrotation Yrotation Xrotation
				JOINT mixamorig:RightToeBase
				{
					OFFSET	-0.3734	-10.4922	12.6406
					CHANNELS 3 Zrotation Yrotation Xrotation
					End Site
					{
						OFFSET 0.0000 0.0000 9.9925
					}
				}
			}
		}
	}
	JOINT mixamorig:LeftUpLeg
	{
		OFFSET	9.1245	-6.6564	-0.0554
		CHANNELS 3 Zrotation Yrotation Xrotation
		JOINT mixamorig:LeftLeg
		{
			OFFSET	-0.0000	-40.5610	-1.7662
			CHANNELS 3 Zrotation Yrotation Xrotation
			JOINT mixamorig:LeftFoot
			{
				OFFSET	-0.4978	-41.9625	-3.3512
				CHANNELS 3 Zrotation Yrotation Xrotation
				JOINT mixamorig:LeftToeBase
				{
					OFFSET	0.3734	-10.4922	12.6406
					CHANNELS 3 Zrotation Yrotation Xrotation
					End Site
					{
						OFFSET -0.0000 0.0000 9.9925
					}
				}
			}
		}
	}
}
MOTION
Frames: 6
Frame Time: 0.0333333
4.8506 93.9109 -0.1614 10.8301 -32.0523 -16.9924 -3.3861 1.2619 5.0385 -1.1366 -0.1723 13.9305 -1.1769 -1.1737 13.6566 -7.3274 7.1143 -6.6966 8.1476 -1.8027 -4.8909 0.0000 -0.0000 0.0000 0.0000 -0.0000 0.0000 0.0000 -0.0000 0.0000 -3.0911 1.5227 -37.2322 -44.5612 -29.5918 -11.8444 3.0875 -73.1667 -4.8827 -14.8729 14.0736 -85.3877 -37.6105 -1.7334 1.8176 -54.4237 -2.0760 2.3177 -42.7734 -1.9872 1.7886 -10.9991 -12.2956 24.2681 13.4852 -0.3329 17.1222 1.2543 2.6804 1.9133 -18.2640 -2.6920 0.4747 -52.2316 -2.6140 0.3974 -35.1229 -1.7605 0.0533 -48.1346 -4.1682 2.1785 -62.7384 -3.5113 0.4273 -36.6736 -1.9172 -0.1627 -39.6086 -0.9049 1.9337 -66.5923 -2.1818 3.3543 -44.6992 -1.9305 2.0256 12.6565 -15.1974 -38.1470 101.9481 37.6768 70.7309 -9.2484 82.4219 -11.1635 -15.1157 -0.6404 -42.7674 52.7422 4.5964 3.0167 100.4118 3.2324 6.4123 18.7017 1.4268 0.5885 17.1035 -5.0786 13.6798 -22.9786 -7.6877 20.8609 -34.9274 -48.0767 34.8914 -5.7364 8.5143 -1.5939 13.2299 0.9615 -0.1519 5.9616 0.3930 -0.0860 53.9490 11.9551 2.5216 95.6203 5.9489 3.2460 47.1182 3.6050 0.2937 72.1883 10.5503 4.0965 77.5078 3.3854 4.8920 68.9549 3.3903 4.2023 -11.8380 11.8117 -27.9999 -8.4369 8.9761 78.4343 6.8250 -2.0868 10.6461 0.0000 -0.0000 -10.6033 -9.7655 11.2243 -6.2838 -1.4256 8.1721 33.0533 7.7251 2.9056 -16.5017 -0.0000 0.0000 -3.6859 
4.8937 94.3888 -0.4834 10.4539 -30.9577 -16.3693 -3.5847 1.2500 5.0602 -1.1165 -0.2677 13.8535 -1.0823 -1.4557 13.6359 -7.4118 6.8354 -6.6904 9.7319 -3.5995 -4.8340 0.0000 -0.0000 0.0000 0.0000 -0.0000 0.0000 0.0000 -0.0000 0.0000 -2.5242 2.3080 -37.3662 -39.5851 -31.3141 -6.0985 2.1804 -69.3933 -3.9259 -16.8568 6.0714 -79.8170 -23.4211 -3.8958 0.9350 -58.9755 -2.1519 2.5891 -33.4093 -1.6807 1.2780 -7.1449 -5.6286 15.5110 11.7388 -4.6272 15.0706 0.8882 -2.3978 -0.0729 -10.2622 -5.5732 -0.3995 -52.7367 -2.6363 0.4128 -29.9988 -1.4963 -0.0222 -40.7778 -4.2752 1.7230 -57.4272 -3.2515 0.2418 -34.2034 -1.7723 -0.1926 -37.4119 0.1153 1.8778 -60.9292 -2.1613 2.9927 -39.6769 -1.7985 1.7302 12.6692 -15.2271 -38.1475 101.2003 37.4154 70.3159 -7.6148 81.1428 -9.5132 -15.5179 -0.3788 -42.3398 53.0905 3.8839 3.0781 100.7089 3.2229 6.4346 18.6413 1.4225 0.5858 17.1035 -5.0785 13.6798 -22.9786 -7.6877 20.8609 -34.9274 -48.0767 34.8914 -4.6933 8.5360 -1.5626 13.3071 0.9673 -0.1521 6.2191 0.4119 -0.0891 54.2008 12.0493 2.5356 95.9666 5.9553 3.2729 46.4949 3.5609 0.2705 71.7905 10.5530 4.0634 77.8243 3.3835 4.9182 68.1603 3.3848 4.1365 -9.1154 10.8781 -28.9349 -8.3018 8.5539 74.7225 8.8307 -2.2936 7.9365 0.0000 -0.0000 -10.6523 -10.4258 10.9813 -2.9794 -1.9158 8.0775 29.3255 8.4582 2.2104 -16.5925 -0.0000 0.0000 -3.5794 
4.8621 94.7900 -0.7823 9.9140 -29.9868 -15.3561 -3.6320 1.2810 4.8433 -1.0305 -0.2063 13.6105 -0.9065 -1.5718 13.4594 -7.3493 6.5906 -6.5258 11.1301 -5.1448 -4.6987 0.0000 -0.0000 0.0000 0.0000 -0.0000 0.0000 0.0000 -0.0000 0.0000 -0.5251 3.0086 -37.4075 -37.3387 -32.9785 1.2698 1.5394 -65.4691 -3.2327 -12.6227 9.2329 -72.3286 -12.8996 -4.6193 0.3787 -61.9219 -2.1894 2.7677 -26.1886 -1.3897 0.9222 -4.5023 -0.3397 8.4935 10.4469 -8.2692 13.5348 0.6579 -6.6026 -1.6538 -3.2105 -7.8557 -1.1139 -55.7228 -2.7657 0.5077 -27.1025 -1.3442 -0.0543 -32.8812 -4.2729 1.2621 -51.9669 -2.9676 0.0771 -31.7463 -1.6271 -0.2162 -34.6146 1.3003 1.8014 -54.3079 -2.0923 2.5750 -36.3520 -1.6971 1.5415 12.6804 -15.2573 -38.1488 99.5811 37.1050 69.1950 -6.5532 80.0454 -8.4373 -15.7958 -0.8719 -41.6453 52.9701 3.0884 3.1057 101.2528 3.2051 6.4754 18.3553 1.4026 0.5735 17.1035 -5.0785 13.6798 -22.9786 -7.6877 20.8609 -34.9274 -48.0767 34.8914 -3.7892 8.7082 -1.5618 13.3848 0.9731 -0.1523 6.3991 0.4252 -0.0912 54.6945 12.1510 2.5688 96.2662 5.9608 3.2962 46.0494 3.5292 0.2542 71.5894 10.5554 4.0465 77.9007 3.3830 4.9245 67.5695 3.3801 4.0876 -6.5514 9.2545 -29.5843 -8.6843 7.7279 68.5459 11.1258 -2.5148 5.2947 0.0000 -0.0000 -9.8819 -11.0670 11.0125 0.0806 -2.1399 7.3521 25.4279 8.9415 1.7385 -16.5382 -0.0000 -0.0000 -3.3967 
4.7985 94.9894 -1.0797 9.4785 -29.3292 -14.3480 -3.6388 1.3999 4.6065 -0.9791 0.0662 13.3137 -0.8066 -1.3453 13.2107 -7.1654 6.4135 -5.9507 12.3681 -6.6618 -4.1202 0.0000 -0.0000 0.0000 0.0000 -0.0000 0.0000 0.0000 -0.0000 0.0000 2.1006 3.8528 -37.3819 -37.7685 -34.9829 7.2264 1.3447 -63.9499 -3.0176 -5.6583 14.6813 -62.3325 -9.2042 -2.1125 0.3483 -48.5630 -1.9471 1.9786 -17.6199 -0.9897 0.5515 -3.8964 0.9777 6.7176 10.1366 -9.2128 13.1623 0.6096 -7.6796 -2.0513 5.0594 -6.6563 -1.2477 -45.9119 -2.3232 0.2220 -24.2939 -1.1954 -0.0780 -26.5257 -4.0872 0.9252 -48.1688 -2.7614 -0.0213 -16.1713 -0.6971 -0.2194 -31.0054 2.5064 1.6830 -47.6131 -1.9740 2.1636 -30.0841 -1.4770 1.2030 12.6901 -15.2867 -38.1507 97.2698 36.9171 67.3486 -5.9190 79.2468 -7.7927 -15.9570 -2.1642 -40.7222 52.5329 2.1897 3.1130 101.9836 3.1806 6.5299 17.8870 1.3697 0.5533 17.1035 -5.0785 13.6798 -22.9786 -7.6877 20.8609 -34.9274 -48.0767 34.8914 -3.1078 8.9757 -1.5849 13.4630 0.9789 -0.1525 6.5888 0.4392 -0.0934 55.4508 12.2648 2.6227 96.5298 5.9654 3.3167 45.7237 3.5060 0.2425 71.5587 10.5577 4.0438 77.7824 3.3838 4.9147 67.0993 3.3760 4.0487 -4.1578 7.4890 -29.9005 -9.7106 6.2991 60.2805 12.9341 -2.6451 2.8370 -0.2946 -0.0492 -9.6775 -11.8464 11.8123 2.9135 -1.9292 5.6665 21.7907 9.0482 1.7153 -16.5398 -0.0000 -0.0000 -3.2196 
4.7026 95.1089 -1.3593 9.0993 -29.0933 -13.4290 -3.5551 1.5701 4.4504 -0.9107 0.4926 13.0794 -0.7214 -0.8680 12.9075 -7.0439 6.2673 -5.2023 13.5623 -8.2007 -3.8392 0.0000 -0.0000 0.0000 0.0000 -0.0000 0.0000 0.0000 -0.0000 0.0000 3.2704 5.0318 -37.5165 -40.5993 -36.9115 11.4260 1.5205 -65.3297 -3.2119 0.6024 18.0845 -49.2663 -9.2537 0.9370 0.4937 -31.3928 -1.3802 1.0832 -10.5075 -0.6186 0.2917 -3.9110 0.9439 6.7636 10.1445 -9.1883 13.1719 0.6108 -7.6517 -2.0410 11.6054 -4.1808 -0.9957 -31.9912 -1.6259 -0.0453 -21.8632 -1.0658 -0.0927 -21.4912 -3.7093 0.6913 -46.0278 -2.6424 -0.0706 -28.9893 -1.4631 -0.2352 -27.5314 3.4468 1.5642 -40.3160 -1.7915 1.7341 -23.8464 -1.2224 0.8920 12.7007 -15.3167 -38.1520 94.6337 36.7939 65.1135 -5.5384 78.7018 -7.4050 -15.8762 -3.9419 -39.5057 52.2177 1.3963 3.1253 102.5476 3.1613 6.5718 17.4967 1.3422 0.5368 17.1035 -5.0785 13.6798 -22.9786 -7.6877 20.8609 -34.9274 -48.0767 34.8914 -3.0799 9.0641 -1.5996 13.5407 0.9847 -0.1528 6.7714 0.4526 -0.0955 56.3779 12.3553 2.6924 96.7061 5.9685 3.3305 45.5177 3.4913 0.2351 71.4290 10.5600 4.0328 77.5955 3.3849 4.8992 66.7373 3.3726 4.0188 -1.7131 5.6962 -29.8396 -10.7771 4.2758 50.2886 14.1526 -2.6445 0.4897 0.0000 0.0000 -9.4894 -12.2768 12.6819 6.1541 -2.1895 4.3034 17.4507 9.7353 2.1058 -16.2124 -0.0000 0.0000 -3.4925 
4.5288 95.1783 -1.5934 8.7847 -29.1703 -12.4420 -3.4995 1.7397 4.2873 -0.9108 0.9556 12.8396 -0.7052 -0.3938 12.5786 -7.0884 6.1394 -4.3520 14.5042 -9.8563 -3.8741 0.0000 -0.0000 0.0000 0.0000 -0.0000 0.0000 0.0000 -0.0000 0.0000 3.8383 6.2396 -37.6996 -43.8568 -37.7391 14.7634 2.1107 -69.0303 -3.8514 6.5786 18.3754 -37.6210 -9.2960 1.7604 0.5318 -26.7577 -1.1834 0.8740 -8.6113 -0.5144 0.2305 -3.9110 0.9439 6.7636 10.1445 -9.1883 13.1719 0.6108 -7.6517 -2.0410 13.3493 -3.5044 -0.9195 -28.2278 -1.4279 -0.0878 -21.2152 -1.0312 -0.0956 -17.0570 -3.2085 0.5115 -44.7773 -2.5721 -0.0973 -33.4327 -1.7269 -0.2007 -26.5815 3.7021 1.5327 -32.4254 -1.5344 1.2999 -22.1740 -1.1485 0.8135 12.6191 -15.2207 -38.1869 92.0663 36.3185 62.3803 -5.3909 78.4752 -7.2546 -15.3878 -5.7821 -37.8483 52.2384 0.8279 3.1535 102.8057 3.1523 6.5909 17.2832 1.3270 0.5278 17.1035 -5.0785 13.6798 -22.9786 -7.6877 20.8609 -34.9274 -48.0767 34.8914 -3.9991 8.8301 -1.5913 13.5940 0.9887 -0.1529 6.8926 0.4616 -0.0969 57.4710 12.3989 2.7793 96.7691 5.9696 3.3354 45.4509 3.4865 0.2327 71.0545 10.5622 4.0016 77.3561 3.3862 4.8794 66.5235 3.3705 4.0012 0.8545 3.5187 -29.5668 -10.9841 2.2497 39.6502 15.9914 -2.4801 -2.4919 0.0000 -0.0000 -8.6324 -12.5093 13.4964 10.0891 -2.7066 3.8167 11.5553 11.0795 2.1983 -15.2403 -0.0000 0.0000 -3.9636 
